<?xml version="1.0" encoding="UTF-8"?>
<svg width="318px" height="98px" viewBox="0 0 318 98" xmlns="http://www.w3.org/2000/svg" xmlns:xlink="http://www.w3.org/1999/xlink" version="1.1">
 <!-- Generated by Pixelmator Pro 1.7.1 -->
 <g id="Page-1">
  <g id="Artboard">
   <g id="Sterling">
    <g id="Group">
     <path id="Fill-1" d="M48.98 0 C76.016 0 97.933 21.938 97.933 49 97.933 76.062 76.016 98 48.98 98 21.944 98 0.027 76.062 0.027 49 0.027 21.938 21.944 0 48.98 0 Z" fill="#d92128" fill-opacity="1" stroke="none"/>
     <path id="Fill-2" d="M65.298 15.309 C73.153 15.309 79.521 21.684 79.521 29.546 79.521 37.409 73.153 43.783 65.298 43.783 57.442 43.783 51.075 37.409 51.075 29.546 51.075 21.684 57.442 15.309 65.298 15.309" fill="#ffffff" fill-opacity="1" stroke="none"/>
    </g>
    <path id="Fill-3" d="M140.504 75.35 C140.504 69.951 136.929 66.137 129.603 64.612 122.101 63.027 120.225 61.56 120.225 59.155 120.225 56.044 122.511 53.991 128.724 53.991 133.119 53.991 136.695 55.282 139.156 57.922 L139.391 57.922 139.391 54.226 C139.391 50.881 136.695 46.89 127.317 46.89 117.881 46.89 112.254 53.228 112.254 59.917 112.254 65.375 116.122 68.778 122.921 70.245 131.42 72.064 132.475 73.296 132.475 76.054 132.475 79.281 130.541 81.335 124.504 81.335 119.639 81.335 116.006 79.399 113.309 76.993 L113.134 76.993 113.134 80.573 C113.134 85.325 117.295 88.494 125.383 88.494 135.112 88.494 140.504 83.271 140.504 75.35 Z M145.789 57.394 L145.789 76.406 C145.789 83.799 149.657 88.142 157.628 88.142 162.2 88.142 164.544 86.088 164.544 82.861 L164.544 80.044 164.251 80.044 C163.02 80.807 161.086 81.159 158.566 81.159 155.401 81.159 153.584 79.575 153.584 75.467 L153.584 63.086 159.855 63.086 C163.078 63.086 164.544 60.974 164.544 59.33 L164.544 56.103 153.584 56.103 153.584 48.944 151.767 48.944 C150.536 48.944 149.129 49.883 148.074 51.115 146.375 53.11 145.789 54.284 145.789 57.394 Z M194.445 67.663 C194.445 60.093 188.349 55.399 181.785 55.399 172.759 55.399 166.312 62.03 166.312 72.592 166.312 82.274 173.99 88.494 181.844 88.494 190.518 88.494 193.273 85.384 193.273 81.335 L193.273 78.871 192.979 78.871 C190.459 81.218 186.591 81.864 183.308 81.864 178.678 81.864 175.044 79.34 174.458 75.35 L179.616 75.35 C190.049 75.35 194.445 73.472 194.445 67.663 Z M187.06 66.724 C187.06 68.954 185.36 69.775 177.916 69.775 L174.4 69.775 174.458 68.719 C174.635 65.081 177.272 61.971 181.081 61.971 184.715 61.971 187.06 63.555 187.06 66.724 Z M217.254 63.79 L217.254 60.974 C217.254 58.568 215.554 55.81 210.689 55.81 202.367 55.81 199.026 61.854 199.026 68.191 L199.026 82.743 C199.026 86.029 201.253 87.79 204.769 87.79 L206.938 87.79 206.938 69.599 C206.938 64.788 208.872 62.851 212.388 62.851 214.44 62.851 215.788 63.321 216.961 63.79 Z M235.784 83.33 L235.784 81.629 233.674 81.629 C229.982 81.629 228.341 80.631 228.341 77.462 L228.341 50.822 C228.341 47.829 226.641 45.541 222.714 45.541 L220.487 45.541 220.487 78.226 C220.487 84.621 224.004 88.084 230.51 88.084 233.967 88.084 235.784 86.734 235.784 83.33 Z M247.34 49.238 C247.34 46.715 245.231 44.661 242.71 44.661 240.19 44.661 238.138 46.715 238.138 49.238 238.138 51.761 240.19 53.873 242.71 53.873 245.231 53.873 247.34 51.761 247.34 49.238 Z M252.967 83.33 L252.967 81.629 251.501 81.629 C248.044 81.629 246.695 80.631 246.695 77.462 L246.695 62.675 C246.695 58.685 244.586 56.807 241.069 56.807 L238.842 56.807 238.842 78.226 C238.842 84.621 242.182 88.084 248.278 88.084 251.619 88.084 252.967 86.734 252.967 83.33 Z M283.746 87.79 L283.746 69.365 C283.746 60.386 277.593 55.399 270.149 55.399 260.302 55.399 255.907 62.264 255.907 68.954 L255.907 82.626 C255.907 85.56 258.075 87.79 261.417 87.79 L263.761 87.79 263.761 69.482 C263.761 64.964 266.105 62.382 269.504 62.382 273.548 62.382 275.893 64.729 275.893 70.069 L275.893 82.626 C275.893 85.56 278.12 87.79 281.637 87.79 Z M317.575 74.646 L317.575 69.247 C317.575 61.15 312.534 55.399 304.681 55.399 294.482 55.399 288.622 62.617 288.622 71.536 288.622 78.988 294.072 84.328 301.749 84.328 306.263 84.328 309.252 81.922 309.896 79.634 L309.896 80.396 C309.896 80.69 309.955 81.511 309.955 81.981 310.014 82.509 310.014 83.154 310.014 83.624 310.014 88.201 307.435 90.9 301.749 90.9 297.237 90.9 293.603 89.492 291.728 87.496 L291.375 87.496 291.375 91.076 C291.375 94.832 295.83 98 302.336 98 312.534 98 317.809 90.9 317.809 82.978 317.809 81.922 317.75 80.22 317.692 78.929 317.633 77.521 317.575 75.702 317.575 74.646 Z M303.801 62.382 C307.259 62.382 309.72 64.788 309.72 69.717 309.72 74.763 306.908 77.697 302.98 77.697 299.229 77.697 296.709 74.646 296.709 70.538 296.709 65.785 299.757 62.382 303.801 62.382 Z" fill="#666666" fill-opacity="1" stroke="none"/>
   </g>
  </g>
 </g>
</svg>
